<?xml version="1.0" encoding="utf-8"?>
<!-- Generator: Adobe Illustrator 23.0.4, SVG Export Plug-In . SVG Version: 6.00 Build 0)  -->
<svg version="1.1" id="Layer_1" xmlns="http://www.w3.org/2000/svg" xmlns:xlink="http://www.w3.org/1999/xlink" x="0px" y="0px"
	 viewBox="0 0 100 100" style="enable-background:new 0 0 100 100;" xml:space="preserve">
<style type="text/css">
	.st0{fill:#6ABEFF;}
</style>
<g id="surface1">
	<path class="st0" d="M11.6,0c-1,0.2-1.6,1-1.6,2v86c0,1.1,0.9,2,2,2h39.7c4.2,2.5,9.1,4,14.3,4c7,0,13.4-2.6,18.3-6.9L97.2,100
		l2.8-2.8L87.1,84.3C91.4,79.4,94,73,94,66c0-9.5-4.8-17.9-12-22.9V2c0-1.1-0.9-2-2-2H12c-0.1,0-0.1,0-0.2,0S11.7,0,11.6,0z M14,4
		h64v36.8C74.4,39,70.3,38,66,38c-6.5,0-12.5,2.2-17.3,6H28v4h16.6c-2,2.4-3.6,5.1-4.7,8H28v4h10.7c-0.4,1.9-0.7,3.9-0.7,6
		c0,0.7,0,1.3,0.1,2H28v4h10.6c1.2,5.4,3.9,10.3,7.8,14H14V4z M28,20v4h38v-4H28z M28,32v4h38v-4H28z M66,42c4.7,0,9.2,1.3,12.9,3.7
		c0.1,0,0.1,0.1,0.2,0.1C85.7,50.1,90,57.5,90,66c0,13.3-10.7,24-24,24c-4.8,0-9.3-1.4-13.1-3.8C46.3,81.9,42,74.5,42,66
		C42,52.7,52.7,42,66,42z M50,54c-1.4,1.8-2.4,3.8-3,6h29v-6H50z M46.4,70c0.4,2.2,1.2,4.2,2.2,6H76v-6H46.4z"/>
</g>
</svg>
