<?xml version="1.0" encoding="utf-8"?>
<!-- Generator: Adobe Illustrator 23.0.4, SVG Export Plug-In . SVG Version: 6.00 Build 0)  -->
<svg version="1.1" id="Layer_1" xmlns="http://www.w3.org/2000/svg" xmlns:xlink="http://www.w3.org/1999/xlink" x="0px" y="0px"
	 viewBox="0 0 162.73 66.57" style="enable-background:new 0 0 162.73 66.57;" xml:space="preserve">
<style type="text/css">
	.st0{fill:#FFFFFF;}
	.st1{fill:#DDDDDD;}
</style>
<g>
	<path class="st0" d="M5.71,47.69c-0.74-0.46-1.34-1.3-1.34-2.41c0-1.57,1.21-2.78,2.78-2.78c0.51,0,1.02,0.14,1.39,0.37
		c2.36,1.48,4.73,2.22,6.72,2.22c2.04,0,2.97-0.74,2.97-1.85v-0.09c0-1.53-2.41-2.04-5.14-2.87c-3.48-1.02-7.41-2.64-7.41-7.46
		v-0.09c0-5.05,4.08-7.87,9.08-7.87c2.59,0,5.28,0.7,7.69,1.9c1.02,0.51,1.67,1.44,1.67,2.64c0,1.58-1.25,2.78-2.83,2.78
		c-0.51,0-0.83-0.09-1.3-0.32c-1.99-0.97-3.89-1.58-5.37-1.58c-1.72,0-2.59,0.74-2.59,1.71v0.09c0,1.39,2.36,2.04,5.05,2.96
		c3.48,1.16,7.5,2.83,7.5,7.36v0.09c0,5.51-4.12,8.01-9.49,8.01C12.01,50.52,8.72,49.64,5.71,47.69z"/>
	<path class="st0" d="M52.17,46.81c0,1.95-1.58,3.52-3.52,3.52c-1.95,0-3.52-1.57-3.52-3.52v-0.28c-1.62,2.09-3.71,3.98-7.27,3.98
		c-5.33,0-8.43-3.52-8.43-9.22V28.47c0-1.95,1.57-3.52,3.52-3.52c1.95,0,3.52,1.58,3.52,3.52v10.61c0,3.33,1.57,5.05,4.26,5.05
		c2.69,0,4.4-1.71,4.4-5.05V28.47c0-1.95,1.57-3.52,3.52-3.52c1.95,0,3.52,1.58,3.52,3.52V46.81z"/>
	<path class="st1" d="M58.46,19.48c0-1.95,1.57-3.52,3.52-3.52c1.95,0,3.52,1.57,3.52,3.52v9.31c1.71-2.32,4.07-4.03,7.74-4.03
		c5.79,0,11.3,4.54,11.3,12.83v0.09c0,8.29-5.42,12.83-11.3,12.83c-3.75,0-6.07-1.71-7.74-3.71v0.05c0,1.9-1.57,3.47-3.52,3.47
		c-1.95,0-3.52-1.57-3.52-3.52V19.48z M77.5,37.69v-0.09c0-4.12-2.78-6.86-6.07-6.86c-3.29,0-6.02,2.73-6.02,6.86v0.09
		c0,4.12,2.73,6.86,6.02,6.86C74.72,44.54,77.5,41.86,77.5,37.69z"/>
	<path class="st0" d="M90.88,43.01V31.25h-0.23c-1.67,0-3.01-1.34-3.01-3.01c0-1.67,1.34-3.01,3.01-3.01h0.23v-3.1
		c0-1.95,1.58-3.52,3.52-3.52s3.52,1.57,3.52,3.52v3.1h3.1c1.67,0,3.01,1.34,3.01,3.01c0,1.67-1.34,3.01-3.01,3.01h-3.1v10.61
		c0,1.62,0.69,2.41,2.27,2.41c0.23,0,0.69-0.05,0.83-0.05c1.57,0,2.92,1.3,2.92,2.92c0,1.25-0.83,2.27-1.81,2.64
		c-1.3,0.51-2.5,0.69-4.03,0.69C93.8,50.47,90.88,48.76,90.88,43.01z"/>
	<path class="st0" d="M109.27,19.48c0-1.95,1.57-3.52,3.52-3.52s3.52,1.57,3.52,3.52v27.33c0,1.95-1.58,3.52-3.52,3.52
		s-3.52-1.57-3.52-3.52V19.48z"/>
	<path class="st0" d="M134.7,50.61c-7.46,0-12.97-5.24-12.97-12.83v-0.09c0-7.09,5.05-12.92,12.27-12.92
		c8.29,0,11.95,6.81,11.95,11.95c0,2.04-1.44,3.38-3.29,3.38h-13.94c0.7,3.2,2.92,4.86,6.07,4.86c1.95,0,3.57-0.6,5-1.67
		c0.51-0.37,0.97-0.56,1.72-0.56c1.57,0,2.73,1.2,2.73,2.78c0,0.93-0.42,1.62-0.93,2.08C141.14,49.45,138.31,50.61,134.7,50.61z
		 M139.24,35.69c-0.42-3.15-2.27-5.28-5.24-5.28c-2.92,0-4.82,2.09-5.37,5.28H139.24z"/>
	<path class="st0" d="M154.33,42.36c2.32,0,4.03,1.71,4.03,3.94v0.09c0,2.22-1.72,3.94-4.03,3.94s-4.03-1.71-4.03-3.94V46.3
		C150.3,44.08,152.02,42.36,154.33,42.36z"/>
</g>
</svg>
